<svg width="237" height="139" viewBox="0 0 237 139" fill="none" xmlns="http://www.w3.org/2000/svg">
<path d="M2.016 9.34399V11.792C8.64 11.792 13.824 13.952 13.824 25.76V94.88C13.824 112.304 9.072 119.504 4.464 121.376V123.68C18.864 121.376 27.072 114.752 27.072 94.736V25.76C27.072 14.096 32.256 11.792 38.88 11.792V9.34399H2.016Z" fill="black"/>
<path d="M177.296 27.056C177.296 17.264 186.08 12.8 195.584 12.8C205.664 12.8 214.88 16.976 220.352 26.336H222.944V10.496C215.6 9.632 206.816 8.47999 199.04 8.47999C182.192 8.47999 165.632 12.8 165.632 31.376C165.632 58.592 219.488 60.176 219.488 87.392C219.488 100.064 209.696 106.544 197.168 106.544C183.776 106.544 171.968 100.784 164.912 87.248H162.176V106.832C175.136 109.28 187.376 111.152 197.312 111.152C218.048 111.152 232.736 104.24 232.736 81.776C232.736 53.408 177.296 46.784 177.296 27.056Z" fill="black"/>
<path d="M126.928 93.872C130.672 87.536 132.544 80.912 132.544 73.424C132.544 65.072 130.24 56.288 124.768 46.784H112.24C123.184 58.592 126.784 69.68 126.784 77.312C126.784 81.2 125.92 85.52 124.192 88.544C110.8 68.528 75.376 52.112 75.376 27.92C75.376 16.976 82.72 11.792 90.784 11.792C98.704 11.792 108.208 16.544 112.816 25.904H114.976V9.91999C107.92 8.62399 101.584 7.75999 96.256 7.75999C79.12 7.75999 65.584 13.952 65.584 32.816C65.584 37.712 66.88 42.464 69.184 46.784C59.248 52.688 53.632 63.344 53.632 75.296C53.632 100.784 73.072 112.16 91.504 112.16C102.304 112.16 112.672 108.56 119.152 102.224C123.76 107.984 127.792 116.192 127.792 123.392C127.792 124.688 127.648 125.696 127.504 126.704C129.52 122.96 132.544 117.344 132.544 111.008C132.544 104.96 130.528 98.768 126.928 93.872ZM64.864 70.976C64.864 64.064 67.456 57.008 72.352 51.824C81.568 68.816 103.744 81.632 116.416 97.904C111.088 102.512 103.888 104.816 96.4 104.816C80.848 104.816 64.864 94.304 64.864 70.976Z" fill="#83907C"/>
</svg>
